<?xml version="1.0" encoding="iso-8859-1"?>
<!-- Generator: Adobe Illustrator 16.0.0, SVG Export Plug-In . SVG Version: 6.00 Build 0)  -->
<!DOCTYPE svg PUBLIC "-//W3C//DTD SVG 1.1//EN" "http://www.w3.org/Graphics/SVG/1.1/DTD/svg11.dtd">
<svg xmlns="http://www.w3.org/2000/svg" xmlns:xlink="http://www.w3.org/1999/xlink" version="1.1" id="Capa_1" x="0px" y="0px" width="512px" height="512px" viewBox="0 0 485.22 485.22" style="enable-background:new 0 0 485.22 485.22;" xml:space="preserve">
<g>
	<path d="M437.624,227.449h-25.175L299.944,58.701c1.979-4.028,3.318-8.41,3.318-13.208c0-16.762-13.571-30.327-30.331-30.327   c-16.741,0-30.324,13.565-30.324,30.327c0,16.76,13.583,30.327,30.324,30.327c0.626,0,1.157-0.327,1.75-0.354l101.341,151.983   H109.208L210.521,75.465c0.623,0.028,1.139,0.354,1.764,0.354c16.746,0,30.322-13.567,30.322-30.327   c0-16.762-13.577-30.327-30.322-30.327c-16.75,0-30.327,13.565-30.327,30.327c0,4.798,1.333,9.15,3.316,13.18L72.751,227.449   H47.607c-35.759,0-55.748,27.779-44.449,61.689l56.399,136.644c11.301,33.934,49.8,44.271,85.543,44.271h194.995   c35.75,0,74.249-10.338,85.594-44.271l56.355-136.644C493.391,255.228,473.341,227.449,437.624,227.449z M121.308,394.24   c0,8.383-6.786,15.159-15.166,15.159c-8.38,0-15.161-6.776-15.161-15.159v-90.979c0-8.378,6.781-15.163,15.161-15.163   c8.379,0,15.166,6.785,15.166,15.163V394.24z M212.285,394.24c0,8.383-6.786,15.159-15.166,15.159   c-8.382,0-15.161-6.776-15.161-15.159v-90.979c0-8.378,6.779-15.163,15.161-15.163c8.38,0,15.166,6.785,15.166,15.163V394.24z    M303.263,394.24c0,8.383-6.785,15.159-15.168,15.159c-8.377,0-15.163-6.776-15.163-15.159v-90.979   c0-8.378,6.786-15.163,15.163-15.163c8.383,0,15.168,6.785,15.168,15.163V394.24z M394.238,394.24   c0,8.383-6.781,15.159-15.163,15.159s-15.168-6.776-15.168-15.159v-90.979c0-8.378,6.786-15.163,15.168-15.163   s15.163,6.785,15.163,15.163V394.24z" fill="#D80027"/>
</g>
<g>
</g>
<g>
</g>
<g>
</g>
<g>
</g>
<g>
</g>
<g>
</g>
<g>
</g>
<g>
</g>
<g>
</g>
<g>
</g>
<g>
</g>
<g>
</g>
<g>
</g>
<g>
</g>
<g>
</g>
</svg>
